<svg width="33" height="31" viewBox="0 0 33 31" fill="none" xmlns="http://www.w3.org/2000/svg">
<path d="M11.0377 24.7185C11.0377 24.8425 10.8847 24.9418 10.6917 24.9418C10.4722 24.9604 10.3192 24.8611 10.3192 24.7185C10.3192 24.5944 10.4722 24.4951 10.6651 24.4951C10.8647 24.4765 11.0377 24.5758 11.0377 24.7185ZM8.96855 24.4393C8.92198 24.5634 9.05504 24.706 9.25464 24.7433C9.42762 24.8053 9.62722 24.7433 9.66714 24.6192C9.70706 24.4951 9.58065 24.3525 9.38105 24.2966C9.20807 24.2532 9.01512 24.3152 8.96855 24.4393ZM11.9093 24.3338C11.7163 24.3773 11.5833 24.4951 11.6032 24.6378C11.6232 24.7619 11.7962 24.8425 11.9958 24.7991C12.1887 24.7557 12.3218 24.6378 12.3018 24.5137C12.2819 24.3959 12.1022 24.3152 11.9093 24.3338ZM16.2871 0.5625C7.05907 0.5625 0 7.09466 0 15.6987C0 22.5783 4.64395 28.4653 11.2772 30.5372C12.1288 30.6799 12.4282 30.1898 12.4282 29.7866C12.4282 29.402 12.4083 27.2805 12.4083 25.9777C12.4083 25.9777 7.75101 26.9082 6.77298 24.1291C6.77298 24.1291 6.01452 22.3239 4.92339 21.8587C4.92339 21.8587 3.3998 20.8848 5.02984 20.9034C5.02984 20.9034 6.68649 21.0274 7.59798 22.5039C9.05504 24.8984 11.4968 24.2098 12.4482 23.8004C12.6012 22.8078 13.0337 22.1192 13.5127 21.7098C9.79355 21.3252 6.04113 20.8227 6.04113 14.8551C6.04113 13.1492 6.54677 12.2931 7.61129 11.2013C7.43831 10.7981 6.87278 9.13557 7.78427 6.9892C9.1748 6.58598 12.375 8.66411 12.375 8.66411C13.7056 8.31672 15.1361 8.13683 16.5532 8.13683C17.9704 8.13683 19.4008 8.31672 20.7315 8.66411C20.7315 8.66411 23.9317 6.57978 25.3222 6.9892C26.2337 9.14177 25.6681 10.7981 25.4952 11.2013C26.5597 12.2993 27.2117 13.1554 27.2117 14.8551C27.2117 20.8413 23.2929 21.319 19.5738 21.7098C20.1859 22.1999 20.7048 23.1304 20.7048 24.5882C20.7048 26.6787 20.6849 29.2655 20.6849 29.7742C20.6849 30.1774 20.9909 30.6675 21.8359 30.5248C28.4891 28.4653 33 22.5783 33 15.6987C33 7.09466 25.5151 0.5625 16.2871 0.5625ZM6.46694 21.958C6.38044 22.02 6.4004 22.1627 6.51351 22.2805C6.61996 22.3798 6.77298 22.4232 6.85948 22.3426C6.94597 22.2805 6.92601 22.1378 6.8129 22.02C6.70645 21.9207 6.55343 21.8773 6.46694 21.958ZM5.74839 21.4555C5.70182 21.5361 5.76835 21.6354 5.90141 21.6974C6.00786 21.7594 6.14093 21.7408 6.1875 21.654C6.23407 21.5733 6.16754 21.4741 6.03448 21.4121C5.90141 21.3748 5.79496 21.3934 5.74839 21.4555ZM7.90403 23.6639C7.79758 23.7445 7.8375 23.9306 7.99052 24.0485C8.14355 24.1912 8.33649 24.2098 8.42298 24.1105C8.50948 24.0299 8.46956 23.8438 8.33649 23.7259C8.19012 23.5832 7.99052 23.5646 7.90403 23.6639ZM7.14557 22.752C7.03911 22.814 7.03911 22.9753 7.14557 23.118C7.25202 23.2607 7.43165 23.3227 7.51815 23.2607C7.6246 23.18 7.6246 23.0187 7.51815 22.8761C7.425 22.7334 7.25202 22.6713 7.14557 22.752Z" fill="#ECECEC"/>
</svg>
