<svg width="33" height="30" viewBox="0 0 33 30" fill="none" xmlns="http://www.w3.org/2000/svg">
<path d="M30.6429 0H2.34978C1.05335 0 0 0.970982 0 2.16295V27.8371C0 29.029 1.05335 30 2.34978 30H30.6429C31.9393 30 33 29.029 33 27.8371V2.16295C33 0.970982 31.9393 0 30.6429 0ZM9.97366 25.7143H5.08259V11.3973H9.98103V25.7143H9.97366ZM7.52812 9.44196C5.95915 9.44196 4.69219 8.28348 4.69219 6.86384C4.69219 5.4442 5.95915 4.28571 7.52812 4.28571C9.08973 4.28571 10.3641 5.4442 10.3641 6.86384C10.3641 8.29018 9.0971 9.44196 7.52812 9.44196ZM28.3078 25.7143H23.4167V18.75C23.4167 17.0893 23.3799 14.9531 20.8754 14.9531C18.3268 14.9531 17.9364 16.7612 17.9364 18.6295V25.7143H13.0453V11.3973H17.7375V13.3527H17.8038C18.4594 12.2277 20.0578 11.0424 22.4371 11.0424C27.3871 11.0424 28.3078 14.0089 28.3078 17.8661V25.7143Z" fill="#ECECEC"/>
</svg>
