<svg width="458" height="84" viewBox="0 0 458 84" fill="none" xmlns="http://www.w3.org/2000/svg">
<path d="M45.2 21.6V33.3L0.2 47.4V36.2L45.2 21.6ZM0.2 42.8L45.2 56.9V68.7L0.2 54.1V42.8ZM10.2 41.2V49.4H7.2V41.2H10.2ZM61.375 78V5H75.575V78H61.375ZM73.575 78V65.5H105.075V78H73.575ZM132.877 79.7C126.61 79.7 121.743 77.6333 118.277 73.5C114.877 69.3667 113.177 63.2333 113.177 55.1V23.6H127.077V56.3C127.077 59.6333 128.01 62.3 129.877 64.3C131.743 66.2333 134.277 67.2 137.477 67.2C140.677 67.2 143.277 66.1667 145.277 64.1C147.343 62.0333 148.377 59.2333 148.377 55.7V23.6H162.277V78H151.277V54.9H152.377C152.377 60.3667 151.677 64.9333 150.277 68.6C148.877 72.2667 146.777 75.0333 143.977 76.9C141.177 78.7667 137.677 79.7 133.477 79.7H132.877ZM202.344 79.9C197.61 79.9 193.51 79.1 190.044 77.5C186.644 75.9 183.777 73.7667 181.444 71.1C179.177 68.4333 177.477 65.4333 176.344 62.1C175.21 58.7667 174.644 55.3667 174.644 51.9V50C174.644 46.3333 175.21 42.8333 176.344 39.5C177.544 36.1 179.31 33.1 181.644 30.5C183.977 27.8333 186.844 25.7333 190.244 24.2C193.71 22.6 197.71 21.8 202.244 21.8C206.977 21.8 211.21 22.7333 214.944 24.6C218.677 26.4 221.644 28.9333 223.844 32.2C226.11 35.4667 227.377 39.2667 227.644 43.6H214.144C213.81 40.8 212.61 38.4667 210.544 36.6C208.544 34.7333 205.777 33.8 202.244 33.8C199.177 33.8 196.61 34.5333 194.544 36C192.544 37.4667 191.044 39.5 190.044 42.1C189.044 44.6333 188.544 47.5667 188.544 50.9C188.544 54.1 189.01 57 189.944 59.6C190.944 62.2 192.444 64.2333 194.444 65.7C196.51 67.1667 199.144 67.9 202.344 67.9C204.744 67.9 206.81 67.4667 208.544 66.6C210.277 65.7333 211.644 64.5333 212.644 63C213.71 61.4667 214.377 59.7333 214.644 57.8H228.144C227.877 62.2 226.577 66.0667 224.244 69.4C221.977 72.6667 218.944 75.2333 215.144 77.1C211.41 78.9667 207.144 79.9 202.344 79.9ZM272.179 78V61.9H269.879V44C269.879 40.8667 269.112 38.5333 267.579 37C266.046 35.4667 263.679 34.7 260.479 34.7C258.812 34.7 256.812 34.7333 254.479 34.8C252.146 34.8667 249.779 34.9667 247.379 35.1C245.046 35.1667 242.946 35.2667 241.079 35.4V23.6C242.612 23.4667 244.346 23.3333 246.279 23.2C248.212 23.0667 250.179 23 252.179 23C254.246 22.9333 256.179 22.9 257.979 22.9C263.579 22.9 268.212 23.6333 271.879 25.1C275.612 26.5667 278.412 28.8667 280.279 32C282.212 35.1333 283.179 39.2333 283.179 44.3V78H272.179ZM254.679 79.4C250.746 79.4 247.279 78.7 244.279 77.3C241.346 75.9 239.046 73.9 237.379 71.3C235.779 68.7 234.979 65.5667 234.979 61.9C234.979 57.9 235.946 54.6333 237.879 52.1C239.879 49.5667 242.646 47.6667 246.179 46.4C249.779 45.1333 253.979 44.5 258.779 44.5H271.379V52.8H258.579C255.379 52.8 252.912 53.6 251.179 55.2C249.512 56.7333 248.679 58.7333 248.679 61.2C248.679 63.6667 249.512 65.6667 251.179 67.2C252.912 68.7333 255.379 69.5 258.579 69.5C260.512 69.5 262.279 69.1667 263.879 68.5C265.546 67.7667 266.912 66.5667 267.979 64.9C269.112 63.1667 269.746 60.8333 269.879 57.9L273.279 61.8C272.946 65.6 272.012 68.8 270.479 71.4C269.012 74 266.946 76 264.279 77.4C261.679 78.7333 258.479 79.4 254.679 79.4ZM317.768 79.7C310.301 79.7 304.435 78.1333 300.168 75C295.968 71.8 293.768 67.4 293.568 61.8H306.068C306.268 63.6667 307.301 65.3667 309.168 66.9C311.035 68.4333 313.968 69.2 317.968 69.2C321.301 69.2 323.935 68.6 325.868 67.4C327.868 66.2 328.868 64.5667 328.868 62.5C328.868 60.7 328.101 59.2667 326.568 58.2C325.101 57.1333 322.568 56.4333 318.968 56.1L314.168 55.6C308.101 54.9333 303.435 53.2 300.168 50.4C296.901 47.6 295.268 43.8667 295.268 39.2C295.268 35.4667 296.201 32.3333 298.068 29.8C299.935 27.2667 302.501 25.3667 305.768 24.1C309.101 22.7667 312.901 22.1 317.168 22.1C323.835 22.1 329.235 23.5667 333.368 26.5C337.501 29.4333 339.668 33.7333 339.868 39.4H327.368C327.235 37.5333 326.301 35.9333 324.568 34.6C322.835 33.2667 320.335 32.6 317.068 32.6C314.135 32.6 311.868 33.1667 310.268 34.3C308.668 35.4333 307.868 36.9 307.868 38.7C307.868 40.4333 308.501 41.7667 309.768 42.7C311.101 43.6333 313.235 44.2667 316.168 44.6L320.968 45.1C327.368 45.7667 332.368 47.5333 335.968 50.4C339.635 53.2667 341.468 57.1333 341.468 62C341.468 65.6 340.468 68.7333 338.468 71.4C336.535 74 333.801 76.0333 330.268 77.5C326.735 78.9667 322.568 79.7 317.768 79.7ZM368.733 84L389.333 -3.09944e-06H403.233L382.633 84H368.733ZM412.407 68.7V57L457.407 42.9V54.1L412.407 68.7ZM457.407 47.5L412.407 33.4V21.6L457.407 36.2V47.5ZM447.407 49.1V40.9H450.407V49.1H447.407Z" fill="#0D52FF"/>
</svg>
