<svg width="88" height="61" viewBox="0 0 88 61" fill="none" xmlns="http://www.w3.org/2000/svg">
<path d="M86.3867 22.9425C84.8742 18.7353 82.0065 15.5628 75.8977 15.5628H68.0212V22.0166C68.0212 27.0272 61.8928 31.248 54.9002 31.248H33.9223C28.1867 31.248 23.4333 34.6519 23.4333 38.6413V52.502C23.4333 56.4505 28.3832 58.7651 33.9223 59.8952C40.5613 61.2432 46.9451 61.4883 54.9002 59.8952C60.1839 58.8332 65.3891 56.6956 65.3891 52.502V46.9604H44.4309V45.1087H75.8977C82.0065 45.1087 84.2653 42.1541 86.3867 37.729C88.5866 33.1678 88.4884 28.7836 86.3867 22.9425ZM56.2162 50.6502C58.3965 50.6502 60.1643 51.8893 60.1643 53.4142C60.1643 54.9528 58.3965 56.1918 56.2162 56.1918C54.0556 56.1918 52.2681 54.9391 52.2681 53.4142C52.2878 51.8756 54.0556 50.6502 56.2162 50.6502ZM32.9598 29.4235H53.9377C59.7715 29.4235 64.4267 26.0877 64.4267 22.0302V8.15592C64.4267 4.2074 59.634 1.25281 53.9377 0.585647C46.9058 -0.217674 39.265 -0.176827 32.9598 0.599263C24.0815 1.68851 22.4709 3.96232 22.4709 8.16954V13.7111H43.4684V15.5628H14.5943C8.48559 15.5628 3.1429 18.1089 1.47331 22.9425C-0.451624 28.484 -0.530193 31.9424 1.47331 37.729C2.96612 42.0316 6.52137 45.1087 12.6301 45.1087H19.8388V38.4643C19.8388 33.658 25.8297 29.4235 32.9598 29.4235ZM31.6438 10.0076C29.4635 10.0076 27.6957 8.76863 27.6957 7.24368C27.7153 5.70511 29.4635 4.4661 31.6438 4.4661C33.8044 4.4661 35.5919 5.71873 35.5919 7.24368C35.5919 8.76863 33.8241 10.0076 31.6438 10.0076Z" fill="#9CA3AF" fill-opacity="0.8"/>
</svg>
