<svg width="86" height="75" viewBox="0 0 86 75" fill="none" xmlns="http://www.w3.org/2000/svg">
<path d="M15.4608 20.476C15.3284 20.476 15.1959 20.5161 15.0647 20.5161C12.3899 20.969 10.5859 24.7085 9.53113 32.0112C8.62901 38.6158 8.72751 47.249 9.54125 53.8941C10.4875 60.387 12.0166 63.8138 14.5688 65.1081C15.1088 65.3891 15.471 66.3309 16.5168 70.2103L17.8037 75H20.1378L18.5858 70.0298C17.7279 67.3046 17.034 64.9316 17.034 64.7232C17.034 64.5149 17.3622 64.058 17.7594 63.6734C19.069 62.4144 20.1566 59.2003 20.9173 54.2744C21.533 50.3189 21.6214 49.0961 21.7096 44.1747C21.9406 29.5257 19.5093 20.3672 15.4607 20.4718L15.4608 20.476ZM17.5072 58.7841C16.3717 60.5312 14.7229 60.88 13.6466 59.6256C12.5339 58.3272 11.4564 54.6559 10.9719 50.4996C10.4332 45.9547 10.5101 37.5702 11.1258 33.7943C12.1162 27.7824 13.4259 25.0171 15.3397 25.0171C18.1784 25.0171 19.7932 30.5403 20.004 40.9207C20.1705 49.5861 19.2571 56.0868 17.5084 58.7804L17.5072 58.7841ZM57.8265 32.9889C56.8475 32.9889 56.0981 34.2477 55.5933 36.728L55.1972 38.6921V33.5858H53.5028V64.2068H55.1961V54.4193C55.1961 45.4695 55.2312 44.4234 55.6249 41.9744C56.1675 38.6158 57.101 36.9409 58.0032 37.7425L58.6087 38.3036V32.997H57.8265V32.9889ZM47.8722 32.7081C47.5403 32.7081 47.1883 32.8486 46.8378 33.0933C44.5705 34.9766 43.2925 41.8703 43.3707 48.9645C43.3707 54.9045 43.7339 57.874 44.6362 60.9885C46.4845 65.8058 48.1561 66.1905 50.4119 63.6057C50.7967 63.0847 51.2155 62.4835 51.2155 62.4835V57.6661L50.4119 58.9887C48.5863 61.5135 47.2111 61.5135 46.1096 58.5396C45.407 56.267 45.0978 53.5416 44.9553 50.4318H51.787V46.3031C51.787 37.8865 50.1923 32.5719 47.8708 32.7081H47.8722ZM45.1092 46.1349C45.1092 46.1349 45.3616 40.8846 46.2977 38.8244C46.7482 37.8142 47.2654 37.3255 47.7712 37.3255C48.2785 37.3255 48.7844 37.8464 49.202 38.8607C50.06 40.9567 50.2038 46.0951 50.2038 46.0951H45.1093V46.1349H45.1092ZM4.26124 40.6122C2.42436 37.0769 1.60933 34.5277 1.70899 31.5218C1.99407 23.2053 5.22898 24.3556 7.02042 27.5021L7.03316 21.9071C7.03316 21.9071 6.04273 20.5444 4.62334 20.4722C2.44577 20.3679 1.03778 22.6362 0.378034 27.2535C-0.590992 34.0669 0.267029 39.205 3.36819 44.9367C5.10919 48.1548 5.87872 50.9486 5.87872 53.9944C5.87872 60.2871 3.49048 62.4835 1.02655 58.5355C0.519467 57.7339 0.0904567 57.0645 0.0677669 57.0645C-0.0206066 58.8482 0.0249474 63.1165 0.0249474 63.1165C0.0249474 63.1165 0.78197 64.1267 1.91733 64.8235C4.73318 66.607 7.29567 62.4109 7.53787 55.5974C7.74859 49.2009 7.02048 45.846 4.26135 40.6076L4.26124 40.6122ZM72.8223 32.6362C72.4917 32.6362 72.1409 32.7804 71.7751 33.0249C69.5105 34.9086 68.2349 41.8025 68.3219 48.8967C68.3219 54.8285 68.6841 57.7702 69.5861 60.8802C71.4345 65.702 73.1061 66.0905 75.3733 63.5017C75.7568 62.9808 76.1744 62.3879 76.1744 62.3879V57.5624L75.3721 58.8926C73.5428 61.4097 72.1675 61.4097 71.0699 58.4359C70.3633 56.1674 70.0568 53.474 69.9142 50.3276H76.7346V46.1994C76.7346 37.8231 75.1398 32.5043 72.8184 32.6447L72.8223 32.6362ZM70.0592 46.0628C70.0592 46.0628 70.3141 40.8203 71.2489 38.72C71.6981 37.7063 72.2153 37.217 72.7213 37.217C73.2259 37.217 73.7344 37.738 74.1521 38.756C75.01 40.8523 75.1539 46.0266 75.1539 46.0266H70.0606L70.0592 46.0628ZM39.0029 40.6802C37.166 37.1533 36.3534 34.5959 36.4519 31.5898C36.7369 23.2691 39.9719 24.4237 41.7633 27.5701L41.776 21.9751C41.776 21.9751 40.7856 20.6123 39.3662 20.548C37.1886 20.4439 35.7806 22.7124 35.1197 27.3294C34.152 34.1427 35.0212 39.2811 38.1122 45.0126C39.8508 48.2272 40.6204 50.9846 40.6204 54.0305C40.6204 60.3231 38.2333 62.5556 35.7694 58.5714C35.2647 57.7698 34.8358 57.1083 34.8106 57.1083C34.7222 58.8917 34.7678 63.1605 34.7678 63.1605C34.7678 63.1605 35.5158 64.1345 36.6475 64.8677C39.466 66.6553 42.0296 62.4628 42.2707 55.6493C42.4801 49.2846 41.7534 45.9301 39.0029 40.6876V40.6802H39.0029ZM82.7778 32.9168C81.7988 32.9168 81.0407 34.1789 80.5448 36.6602L80.1485 38.616V33.518H78.4541V64.1306H80.1473V54.3436C80.1473 45.3976 80.1813 44.3475 80.5763 41.9026C81.1188 38.5481 82.0523 36.869 82.9544 37.6743L83.5599 38.2352V32.917L82.7778 32.9168ZM25.5287 40.5037V21.0008H23.8205V64.1988H31.0043V59.097H25.5287V40.5037H25.5287ZM65.0329 46.5836L63.625 58.2228L62.2711 46.5195L60.896 33.55H59.1474C60.2804 43.7544 61.5128 54.1347 62.7556 64.1988C63.2944 64.2387 63.8343 64.1988 64.373 64.1988L66.2744 49.0327L68.211 33.5539H66.5394C66.5394 33.5539 65.8012 39.7021 65.0317 46.5877L65.0329 46.5836ZM29.4649 9.22944C29.74 9.22944 29.9696 8.94926 30.1588 8.34803C30.3455 7.75457 30.4439 7.05724 30.4439 6.18358C30.4439 5.30974 30.3455 4.58025 30.1588 4.01913C29.9696 3.4582 29.7513 3.17727 29.4775 3.17727C29.2 3.17727 28.9704 3.45819 28.7836 4.0511C28.5944 4.64457 28.5086 5.37406 28.5086 6.21574C28.5086 7.09753 28.597 7.82665 28.7836 8.38019C28.9603 8.94094 29.1899 9.22168 29.4649 9.22168V9.22944ZM28.8594 4.25977C29.0234 3.73894 29.2227 3.49813 29.4776 3.49813C29.7173 3.49813 29.9167 3.73894 30.0833 4.25977C30.2473 4.78078 30.3356 5.41398 30.3356 6.18358C30.3356 6.953 30.2473 7.61855 30.0833 8.13937C29.9167 8.66002 29.7173 8.90878 29.4776 8.90878C29.2341 8.90878 29.036 8.66833 28.872 8.13937C28.708 7.61855 28.6197 6.953 28.6197 6.18358C28.6197 5.41398 28.6954 4.78097 28.8594 4.25977ZM29.2668 6.46432H29.3778C29.4561 6.46432 29.5331 6.70459 29.5986 7.16166L29.7312 8.10721H29.9393L29.7754 7.05686C29.7085 6.63639 29.643 6.39187 29.5659 6.3233C29.6631 6.25122 29.74 6.14717 29.7956 5.93851C29.8509 5.75849 29.8712 5.51379 29.8712 5.23711C29.8712 4.91663 29.8397 4.67636 29.7729 4.49986C29.6971 4.29951 29.576 4.19139 29.4195 4.19139H29.0689V8.10721H29.2455V6.46396L29.2668 6.46432ZM29.2668 4.64457H29.4208C29.5318 4.64457 29.6101 4.71665 29.653 4.8207C29.6946 4.92494 29.706 5.06153 29.706 5.30975C29.706 5.76256 29.6175 5.97529 29.4536 5.97529H29.2644V4.64457H29.2668ZM1.04907 6.11538C1.04907 4.75269 1.0365 3.73895 1.02638 3.1416H1.0365C1.0806 3.84651 1.13488 4.37195 1.17904 4.72053L2.8191 16.3597H3.09417L4.73423 4.61648C4.7785 4.29618 4.82266 3.81491 4.87688 3.14548H4.88945C4.8567 4.30801 4.84535 5.31788 4.84535 6.12333V16.3959H5.40666V1.12556H4.7027L3.19511 11.7465C3.13955 12.1672 3.06258 12.7969 2.9642 13.6304H2.94139C2.90864 13.2175 2.83167 12.5882 2.72194 11.8186L1.24827 1.08915H0.50021V16.3593H1.04017V6.12296L1.04907 6.11538ZM6.63685 6.14385H7.12142V15.6544H6.63685V6.14385ZM6.87911 2.65662C6.98011 2.65662 7.06586 2.54813 7.13143 2.33614C7.19833 2.12748 7.24255 1.85505 7.24255 1.53457C7.24255 1.22185 7.20968 0.941114 7.13277 0.733004C7.06464 0.520459 6.97755 0.411969 6.87789 0.411969C6.77956 0.411969 6.69125 0.520459 6.62551 0.733004C6.55883 0.941114 6.51456 1.22185 6.51456 1.53457C6.51456 1.88333 6.54865 2.12748 6.62551 2.33614C6.70137 2.54813 6.77951 2.65662 6.87789 2.65662H6.87911ZM10.5758 15.8631V14.1875C10.3108 14.8168 10.0257 15.1297 9.73045 15.1297C9.37731 15.1297 9.09077 14.7451 8.88133 14.0078C8.67323 13.2783 8.56222 12.2639 8.56222 11.0015C8.56222 9.67893 8.67323 8.62841 8.9028 7.82683C9.12359 7.05742 9.41006 6.67262 9.76082 6.67262C10.0472 6.67262 10.3221 6.95355 10.5758 7.51486V5.73132C10.345 5.34652 10.0813 5.17002 9.78351 5.17002C9.23337 5.17002 8.80453 5.73133 8.48409 6.81383C8.16608 7.89578 8.00208 9.36677 8.00208 11.1424C8.00208 12.7213 8.14461 14.0481 8.44121 15.0622C8.75025 16.1041 9.14529 16.6332 9.62968 16.6332C10.0042 16.6003 10.3108 16.3517 10.5758 15.8631ZM11.9622 10.7929C11.9622 9.53829 12.0506 8.52454 12.2146 7.82665C12.3686 7.1977 12.5552 6.8811 12.776 6.8811C12.9627 6.8811 13.0952 6.98922 13.1923 7.23374V5.41398C13.1166 5.30993 13.0068 5.27389 12.8643 5.27389C12.6662 5.27389 12.4897 5.48569 12.3345 5.87511C12.1705 6.28745 12.0393 6.91715 11.9623 7.71872H11.9497V5.48607H11.4009V16.3878H11.951V10.7929H11.9622ZM15.1201 16.6042C15.6375 16.6042 16.0538 16.0751 16.3628 15.0253C16.6706 13.9827 16.8245 12.5803 16.8245 10.8324C16.8245 9.04943 16.6833 7.68656 16.3956 6.67207C16.1106 5.65869 15.7143 5.16909 15.197 5.16909C14.6797 5.16909 14.2633 5.65832 13.9543 6.60406C13.6238 7.64664 13.4496 9.11745 13.4496 11.0052C13.4496 12.6485 13.591 14.0113 13.8888 15.0253C14.1965 16.0751 14.6041 16.6001 15.1201 16.6001V16.6042ZM14.3379 7.7226C14.5474 7.0212 14.8225 6.67225 15.163 6.67225C15.5164 6.67225 15.7813 7.0212 15.9781 7.7226C16.1761 8.45616 16.2746 9.50243 16.2746 10.901C16.2746 12.2313 16.1863 13.2776 15.9995 13.979C15.8129 14.7126 15.5378 15.1011 15.1744 15.1011C14.8212 15.1011 14.5474 14.7122 14.3379 13.979C14.1298 13.2416 14.0301 12.2313 14.0301 10.901C14.0087 9.57839 14.1185 8.49645 14.3379 7.7226ZM19.2331 15.6544C19.4425 15.0615 19.5537 14.332 19.5537 13.4177C19.5537 12.6161 19.4652 11.951 19.3013 11.4259C19.1675 11.0054 18.9607 10.6243 18.6617 10.2395C18.3966 9.88723 18.2326 9.57415 18.1443 9.32963C18.056 9.04925 18.0017 8.70086 18.0017 8.20757C18.0017 7.75475 18.0573 7.406 18.1659 7.12544C18.2769 6.84525 18.4182 6.70903 18.6074 6.70903C18.9039 6.70903 19.1575 6.95725 19.3895 7.48251V5.73484C19.1675 5.38257 18.9265 5.21419 18.6515 5.21419C18.2983 5.21419 18.0005 5.52303 17.7809 6.11963C17.55 6.71328 17.4403 7.48269 17.4403 8.38813C17.4403 9.18971 17.5159 9.85526 17.6597 10.3439C17.7808 10.7609 17.9879 11.186 18.2754 11.5663C18.5505 11.9513 18.7372 12.2997 18.8368 12.5801C18.9352 12.861 18.9794 13.2094 18.9794 13.6227C18.9794 14.6403 18.7599 15.1657 18.3309 15.1657C18.0003 15.1657 17.704 14.8209 17.4389 14.1237V16.0069C17.6786 16.4643 17.9663 16.6724 18.2842 16.6724C18.6917 16.6044 19.0108 16.2878 19.2304 15.6585L19.2331 15.6544ZM21.8523 5.16946C21.3349 5.16946 20.9186 5.65868 20.6095 6.60442C20.2815 7.647 20.1049 9.11782 20.1049 11.0056C20.1049 12.6488 20.2475 14.0117 20.544 15.0257C20.8531 16.0754 21.2593 16.6005 21.7766 16.6005C22.3064 16.6005 22.7103 16.0717 23.0193 15.0212C23.3284 13.9794 23.4823 12.5766 23.4823 10.8289C23.4823 9.04537 23.3385 7.68286 23.0533 6.66874C22.7557 5.65462 22.3594 5.16558 21.8547 5.16558L21.8523 5.16946ZM22.9196 10.9012C22.9196 12.2315 22.8313 13.2778 22.6446 13.9792C22.4578 14.7127 22.1828 15.1012 21.8194 15.1012C21.466 15.1012 21.1923 14.7124 20.9828 13.9792C20.7747 13.2418 20.675 12.2315 20.675 10.9012C20.675 9.49837 20.7849 8.41642 21.0057 7.68656C21.2137 6.98922 21.4889 6.6364 21.8308 6.6364C22.1713 6.6364 22.4452 6.98886 22.6432 7.68656C22.8199 8.45597 22.9183 9.50225 22.9183 10.9012H22.9196ZM24.4059 16.3558H24.9547V6.91733H25.7583V5.45021H24.9546V3.76685C24.9546 2.23616 25.1413 1.46656 25.5274 1.46656C25.6574 1.46656 25.7898 1.57062 25.8883 1.74712V0.172244C25.7898 0.0319642 25.6574 0 25.492 0C25.1955 0 24.9533 0.280743 24.7552 0.873651C24.5243 1.57098 24.402 2.4768 24.402 3.70365V5.49124H23.8215V6.95799H24.402V16.361L24.4059 16.3558ZM26.6603 13.3818C26.6603 15.5143 26.9569 16.6003 27.5624 16.6003C27.782 16.6003 27.9472 16.4883 28.0797 16.2398V14.7408C27.9788 14.9815 27.8589 15.0939 27.7265 15.0939C27.5399 15.0939 27.4086 14.953 27.3316 14.6364C27.2533 14.3242 27.2092 13.7947 27.2092 13.0652V6.91326H28.0796V5.44614H27.2092V2.23209C27.02 2.44038 26.8346 2.61689 26.6591 2.79284V5.44596H26.0661V6.91308H26.6591V13.378L26.6603 13.3818ZM85.7048 33.4775C85.5181 32.9168 85.2973 32.636 85.0236 32.636C84.7461 32.636 84.5163 32.9168 84.3296 33.5178C84.1429 34.107 84.0545 34.8402 84.0545 35.6823C84.0545 36.5561 84.1429 37.2856 84.3282 37.8464C84.515 38.4075 84.7446 38.6884 85.0222 38.6884C85.2959 38.6884 85.5268 38.4075 85.7161 37.8144C85.9016 37.2132 86 36.5199 86 35.6503C85.9899 34.7685 85.8902 34.0388 85.7035 33.4779L85.7048 33.4775ZM85.6165 37.6061C85.4525 38.1269 85.2532 38.3674 85.0109 38.3674C84.7713 38.3674 84.5719 38.1269 84.4054 37.6061C84.2414 37.0769 84.153 36.4156 84.153 35.642C84.153 34.8803 84.2287 34.2475 84.3953 33.7184C84.5592 33.1977 84.7574 32.9567 85.0109 32.9567C85.2507 32.9567 85.4501 33.1977 85.6165 33.7184C85.7805 34.2475 85.8688 34.8803 85.8688 35.642C85.8688 36.4519 85.7931 37.0769 85.6165 37.6061ZM85.1219 35.8224C85.2203 35.7503 85.2986 35.61 85.3528 35.4378C85.4084 35.2572 85.4286 35.0125 85.4286 34.7327C85.4286 34.4199 85.397 34.1714 85.3302 33.9991C85.2546 33.7986 85.1322 33.6903 84.9771 33.6903H84.6263V37.6018H84.803V35.9586H84.9127C84.9885 35.9586 85.0642 36.1989 85.1322 36.6559L85.2633 37.5978H85.4729L85.309 36.5474C85.2521 36.0905 85.1865 35.8819 85.1198 35.8137L85.1219 35.8224ZM85.0008 35.4699H84.8116V34.1475H84.9668C85.0766 34.1475 85.1535 34.2113 85.1977 34.3198C85.2418 34.4238 85.2519 34.5602 85.2519 34.8088C85.2519 35.2616 85.1636 35.4703 84.9997 35.4703L85.0008 35.4699ZM54.3066 4.9974H54.4605V1.08158H54.8679V0.592538H53.8991V1.08158H54.3067V4.9974H54.3066ZM55.2402 2.05558C55.2402 1.67448 55.2402 1.36195 55.2313 1.186C55.2415 1.39411 55.2641 1.53476 55.2743 1.63882L55.7474 4.9974H55.8231L56.2974 1.60646C56.3101 1.50241 56.3203 1.36602 56.3416 1.186C56.3315 1.53476 56.3315 1.81458 56.3315 2.02749V4.99351H56.4956V0.592538H56.2974L55.8686 3.63064C55.8584 3.73913 55.8242 3.95112 55.8029 4.19194H55.7903C55.7814 4.05129 55.7588 3.9112 55.7272 3.67111L55.2982 0.592899H55.0762V5.00164H55.2313V2.05983L55.2402 2.05558Z" fill="#9CA3AF" fill-opacity="0.8"/>
</svg>
