<svg width="74" height="62" viewBox="0 0 74 62" fill="none" xmlns="http://www.w3.org/2000/svg">
<path d="M0 31V62H74V0H0V31ZM59.6301 28.5278C61.5102 28.9211 62.9416 29.6283 64.2667 30.7675C64.9419 31.372 65.9525 32.4822 66.0381 32.7554C66.0612 32.8368 62.8468 34.6425 60.8951 35.6519C60.8234 35.6926 60.5343 35.4408 60.2198 35.0455C59.2694 33.8849 58.2681 33.3812 56.7395 33.2901C54.4987 33.1681 53.0534 34.1484 53.0649 35.7934C53.0534 36.1964 53.1621 36.6013 53.3771 36.9539C53.872 37.8122 54.7993 38.3257 57.6645 39.3661C62.9648 41.2726 65.2287 42.5339 66.637 44.3203C68.2141 46.3179 68.5633 49.507 67.5042 51.8882C66.3248 54.4612 63.4087 56.2166 59.3133 56.792C58.0484 56.9838 55.0375 56.9528 53.6754 56.7416C50.7016 56.2979 47.8826 55.0657 46.1482 53.4517C45.4614 52.8259 44.1364 51.181 44.2219 51.0706C44.2589 51.0299 44.5596 50.8691 44.8972 50.7063C45.2348 50.5436 46.4743 49.9391 47.6444 49.3733L49.7766 48.3348L50.2229 48.8889C50.8496 49.6852 52.2093 50.7761 53.0303 51.1384C55.3913 52.1885 58.6311 52.0374 60.2337 50.8361C60.8835 50.3828 61.2466 49.6852 61.198 48.98C61.198 48.2631 61.0893 47.9415 60.643 47.4048C60.0649 46.7189 58.8971 46.1338 55.5601 44.9229C51.7422 43.5395 50.0911 42.6928 48.5995 41.3307C47.6606 40.4318 46.9622 39.3739 46.5645 38.2327C46.287 37.355 46.2153 35.154 46.4327 34.2763C47.2166 31.1782 50.0101 29.0296 54.02 28.3941C55.3219 28.1829 58.3559 28.2623 59.6324 28.5258L59.6301 28.5278ZM42.2632 31.1221L42.2864 33.6544H32.6502V56.5924H25.8329V33.6544H16.2106V31.1724C16.2106 29.7891 16.2476 28.6401 16.2939 28.6091C16.3309 28.5684 22.1838 28.5491 29.2901 28.5588L42.2262 28.5897L42.2632 31.1221Z" fill="#9CA3AF"/>
</svg>
