<svg width="448" height="500" viewBox="0 0 448 500" fill="none" xmlns="http://www.w3.org/2000/svg">
<path d="M380.9 85.1C339 43.1 283.2 20 223.9 20C101.5 20 1.9 119.6 1.9 242C1.9 281.1 12.1 319.3 31.5 353L0 468L117.7 437.1C150.1 454.8 186.6 464.1 223.8 464.1H223.9C346.2 464.1 448 364.5 448 242.1C448 182.8 422.8 127.1 380.9 85.1ZM223.9 426.7C190.7 426.7 158.2 417.8 129.9 401L123.2 397L53.4 415.3L72 347.2L67.6 340.2C49.1 310.8 39.4 276.9 39.4 242C39.4 140.3 122.2 57.5 224 57.5C273.3 57.5 319.6 76.7 354.4 111.6C389.2 146.5 410.6 192.8 410.5 242.1C410.5 343.9 325.6 426.7 223.9 426.7ZM325.1 288.5C319.6 285.7 292.3 272.3 287.2 270.5C282.1 268.6 278.4 267.7 274.7 273.3C271 278.9 260.4 291.3 257.1 295.1C253.9 298.8 250.6 299.3 245.1 296.5C212.5 280.2 191.1 267.4 169.6 230.5C163.9 220.7 175.3 221.4 185.9 200.2C187.7 196.5 186.8 193.3 185.4 190.5C184 187.7 172.9 160.4 168.3 149.3C163.8 138.5 159.2 140 155.8 139.8C152.6 139.6 148.9 139.6 145.2 139.6C141.5 139.6 135.5 141 130.4 146.5C125.3 152.1 111 165.5 111 192.8C111 220.1 130.9 246.5 133.6 250.2C136.4 253.9 172.7 309.9 228.4 334C263.6 349.2 277.4 350.5 295 347.9C305.7 346.3 327.8 334.5 332.4 321.5C337 308.5 337 297.4 335.6 295.1C334.3 292.6 330.6 291.2 325.1 288.5Z" fill="#F0F0F0"/>
</svg>
