<svg width="33" height="30" viewBox="0 0 33 30" fill="none" xmlns="http://www.w3.org/2000/svg">
<path d="M28.0574 4.35937C24.971 1.54687 20.8607 0 16.4926 0C7.47656 0 0.139955 6.66964 0.139955 14.8661C0.139955 17.4844 0.891295 20.0424 2.32031 22.2991L0 30L8.66987 27.9308C11.0565 29.1161 13.7451 29.7388 16.4853 29.7388H16.4926C25.5013 29.7388 33 23.0692 33 14.8728C33 10.9018 31.1438 7.17187 28.0574 4.35937ZM16.4926 27.2344C14.0471 27.2344 11.6531 26.6384 9.56853 25.5134L9.075 25.2455L3.93348 26.471L5.30357 21.9107L4.97946 21.442C3.61674 19.4732 2.90223 17.2031 2.90223 14.8661C2.90223 8.0558 9.00134 2.51116 16.5 2.51116C20.1315 2.51116 23.542 3.79687 26.1054 6.13393C28.6688 8.47098 30.2451 11.5714 30.2377 14.8728C30.2377 21.6897 23.9839 27.2344 16.4926 27.2344ZM23.9471 17.9799C23.542 17.7924 21.531 16.8951 21.1554 16.7746C20.7797 16.6473 20.5071 16.5871 20.2346 16.9621C19.9621 17.3371 19.1813 18.1674 18.9382 18.4219C18.7025 18.6696 18.4594 18.7031 18.0542 18.5156C15.6529 17.4241 14.0766 16.567 12.4929 14.096C12.073 13.4397 12.9127 13.4866 13.6935 12.067C13.8261 11.8192 13.7598 11.6049 13.6567 11.4174C13.5536 11.2299 12.7359 9.40179 12.3971 8.65848C12.0656 7.93527 11.7268 8.03571 11.4763 8.02232C11.2406 8.00893 10.9681 8.00893 10.6955 8.00893C10.423 8.00893 9.98103 8.10268 9.60536 8.47098C9.22969 8.84598 8.17634 9.7433 8.17634 11.5714C8.17634 13.3996 9.64219 15.1674 9.84107 15.4152C10.0473 15.6629 12.7212 19.4129 16.8241 21.0268C19.417 22.0446 20.4335 22.1317 21.7299 21.9576C22.5181 21.8504 24.146 21.0603 24.4848 20.1897C24.8237 19.3192 24.8237 18.5759 24.7205 18.4219C24.6248 18.2545 24.3522 18.1607 23.9471 17.9799Z" fill="#ECECEC"/>
</svg>
